<svg viewBox="0 0 350 126" fill="none" xmlns="http://www.w3.org/2000/svg">
  <g clip-path="url(#a)">
    <path d="M13.5 25.5 3 72.5l79.4 53.6 234.8-11 28.3-46.6L337.8 0 13.5 25.5Z" fill="#5E8CFF"></path>
    <path d="m203.8 2.7 134-1.6-74.7 24.3L321 90 72 119 38.5 96.5l45.2-51.6L8 52l6.5-25.5L203.8 2.7Z" fill="#4074F8"></path>
    <path d="M56 29c-1.4-3.9-2-12.2 7.4-14M52.2 22.4c-.6-1.6-.6-6.6 3-7.3" stroke-width="2" stroke-linecap="round" stroke="#0F0F0F"></path>
    <circle stroke-width="2" stroke="#0F0F0F" r="6" cy="76" cx="338"></circle>
    <path d="M188.6 38.9c.4.3.4.6 0 .8l-.7.3-2 .2c-4.4.5-8.7 1-13 1.3l-7.3.7h-1.2c-.3 0-.6 0-.6-.4 0-.3.3-.4.5-.4l2.4-.5 8.6-1 10.8-1 1.9-.2.6.2Z" fill="#0F0F0F"></path>
    <path d="M187 33.4c.4-.4.7-.2 1 0 2.7 1.2 5.1 2.6 7.6 4.1l3.5 2.2c.8.5 1 1 .5 1.9l-1 1.2-1.8 2.4-4.2 5.1-.9.8c-.2.2-.5.2-.7 0-.3-.2-.2-.5 0-.8 0-.2.2-.3.4-.5l1.3-1.5 5.1-6.4.3-.3c.5-.9.5-1-.4-1.5l-2.8-1.7c-2-1.3-4-2.6-6.3-3.7l-1.3-.8-.4-.5ZM164 47.3l.8-.2c2.4-.4 4.8-.8 7.3-1l13.3-1.4h2.7c.3-.1.7 0 1 .1l.3.6-.4.4-.7.1a11221.2 11221.2 0 0 1-23.3 1.8c-.3 0-.7.1-1-.4Z" fill="#0F0F0F"></path>
    <rect transform="rotate(-16 68 26.3)" rx="4" stroke-width="2" stroke="#0F0F0F" fill="#0F0F0F" y="26.3" x="68.1" height="103.5" width="79.3"></rect>
    <rect transform="rotate(-16 60.6 22.8)" rx="5" stroke-width="2" stroke="#0F0F0F" fill="#fff" y="22.8" x="60.6" height="105.5" width="81.3"></rect>
    <rect transform="rotate(-16 70 28.2)" rx="4" fill="#ECE4E3" y="28.2" x="70" height="67.7" width="65.9"></rect>
    <path d="M89 69.3A7.6 7.6 0 0 1 91.3 59l14.2-9.6 7.7-14.4 1 .5 1.3-6.5 1.7 1.6c2.8 2.5 4.6 6 5 9.8l4.2-4c1.3-1.1 3-1.5 4.6-.8l8.3 17.2a7 7 0 0 1-4.5 9.8l-30.5 8.3L89 69.3Z" fill="#0F0F0F"></path>
    <path d="m112.2 34 3.1-4.8c2 2.8 3.3 6 3.6 9.4v.3h.2c2.7 2 6.3 1 7.8-1.8l1-2 7.5 15.4c1.8 3.6-.2 8-4.2 9l-29 8-14-1.4c.3-5.8 3.6-11.2 8.6-14.3l6.8-4.1h.2v-.2L111 34l.6.3.4.1.2-.3Z" stroke="#0F0F0F" fill="#fff"></path>
    <path d="M110 32.8h.1l7 4c3.8 2 8.4 1.5 11.5-1.4.7 3.8-2.4 10-4.1 12.7L113 42.4a7 7 0 0 1-3-9.6Z" stroke="#0F0F0F" fill="#E85A6B"></path>
    <path d="M127.7 42c-5.8 1.4-11 12.3-12.8 17.5.1 0 4.2-1.6 19.5-8 .3-4.6-2.2-10.7-6.7-9.5Z" fill="#0F0F0F"></path>
    <path d="m88 62.6 12.2 1.2 5 2.2 27-7.3a4.8 4.8 0 0 0 3.1-2.7l3-.8" stroke="#371712"></path>
    <path d="m97.4 56.8-7.4-.5a5.6 5.6 0 0 0-1.9 3.1l8.9 1c3.6.3 7 1.4 10.3 3L110 62c-3.6-3-8-4.9-12.7-5.2Z" fill="#0F0F0F"></path>
    <path d="m136.2 51-29 12.4-2.7-1.4c2.3-3.5 6.8-5.2 12.4-6.4 5.5-1.1 13-8.4 14.6-8.3h2.8l1.9 3.8Z" fill="#E85A6B"></path>
    <path d="m136.2 51-29 12.4-2.7-1.4c2.3-3.5 6.8-5.2 12.4-6.4 5.5-1.1 13-8.4 14.6-8.3h2.8" stroke="#242424"></path>
    <path d="M93.7 53.4c1.6 1.8 4 2.6 6.4 2.3l17.5-2.3M98 50.5l1 1c.8.6 2 0 2-.9l3.5-2.3a6 6 0 0 0 8-2.2l1.8-3" stroke="#0F0F0F"></path>
    <rect transform="rotate(-15 126.9 57)" rx=".5" stroke="#0F0F0F" y="56.9" x="126.9" height="1" width="5.8"></rect>
    <rect transform="rotate(-16 92 99.6)" rx="1.7" fill="#D9D9D9" y="99.6" x="92" height="3.4" width="31.1"></rect>
    <rect transform="rotate(-16 95 106.6)" rx="1.7" fill="#D9D9D9" y="106.6" x="95" height="3.4" width="17.3"></rect>
    <rect transform="rotate(8 216.3 12.5)" rx="4" fill="#0F0F0F" y="12.5" x="216.3" height="104" width="79.6"></rect>
    <rect transform="rotate(8 210.3 4)" rx="5" stroke-width="2" stroke="#0F0F0F" fill="#fff" y="4" x="210.3" height="106" width="81.6"></rect>
    <rect transform="rotate(8 217.2 13)" rx="4" fill="#ECE4E3" y="13" x="217.2" height="67.7" width="65.9"></rect>
    <path d="m239.5 27.5 13.6 3.9-4.6 16.7a4 4 0 0 0 .2 2.7 6.7 6.7 0 0 1-5.2 9.5l-2.5.4-6.1 2.7-4.5 1.9a7 7 0 0 1-9.3-4.1 7 7 0 0 1 3.7-8.7l4.2-1.9c3-1.5 5.2-4.2 6.2-7.4v-.1l4.3-15.6Z" fill="#0F0F0F"></path>
    <path d="m239.3 25 13.6 3.9-4.6 16.7a4 4 0 0 0 .2 2.7 6.7 6.7 0 0 1-5.2 9.5l-2.5.3-6.1 2.7-4.5 2a7 7 0 0 1-9.3-4.1 7 7 0 0 1 3.7-8.7l4.2-2c3-1.4 5.2-4 6.1-7.3v-.1l4.4-15.6Z" fill="#F8A60F"></path>
    <path d="M240.7 57.1h-.2l-.1.1-6.1 2.7-4.5 2a6 6 0 0 1-8-3.6A6 6 0 0 1 225 51l4.2-2c3.3-1.5 5.7-4.4 6.7-8l4.3-14.9 11.7 3.4-4.6 15.9a5 5 0 0 0 .3 3.4 5.7 5.7 0 0 1-4.5 8.1l-2.4.3Z" stroke-width="2" stroke="#0F0F0F"></path>
    <path d="M248.2 47c-1 .2-3.2.7-5.2 1.6a4.1 4.1 0 0 0-2.4 3.7c0 1.5 0 3.5.6 5.8M223.8 50.4c3.2 1.4 8.7 6 5.7 12.6" stroke-width="2" stroke="#0F0F0F"></path>
    <path d="m237.9 31.9 12.7 3.6-.4 1.5-12.7-3.7zM265 38.5l10.2 9.9-11.6 11.9a4 4 0 0 0-1.1 2.5 6.7 6.7 0 0 1-9 6l-2.4-1-6.7-.4-4.8-.4c-4-.4-7-4-6.4-8a7 7 0 0 1 7.4-6l4.6.3c3.3.2 6.6-1.2 9-3.6L265 38.4Z" fill="#0F0F0F"></path>
    <path d="m264 37.8 8.7 8.5-10.9 11.2a5 5 0 0 0-1.4 3.1 5.7 5.7 0 0 1-7.7 5l-2.3-.8H250l-6.6-.5-4.9-.4a6 6 0 0 1-5.4-6.9 6 6 0 0 1 6.3-5l4.6.2c3.6.1 7.2-1.3 9.7-3.9L264 37.7Z" stroke-width="2" stroke="#0F0F0F" fill="#FFC32A"></path>
    <path d="M261.8 59.5c-1-.4-3.2-1-5.3-1.2-1.6 0-3 .8-3.9 2.2-.7 1.3-1.6 3.2-2.2 5.4M238.7 51c2 2.7 4.8 9.4-1 13.8" stroke-width="2" stroke="#0F0F0F"></path>
    <path d="m260 40.5 10.1 9.9-1 1-10.2-9.8z" fill="#0F0F0F"></path>
    <rect transform="rotate(8 208.5 86)" rx="1.7" fill="#D9D9D9" y="86" x="208.5" height="3.4" width="31.1"></rect>
    <rect transform="rotate(8 207.5 94)" rx="1.7" fill="#D9D9D9" y="94" x="207.5" height="3.4" width="17.8"></rect>
    <path d="M293.4 1.5c-1.2-.3-1.7 0-3 4.2-.4 1-1.5 4.6-.7 4.9.3 0 1.4-2 2.4-4s2.4-4.7 1.3-5ZM311.4 3.8c-1.2-1-2-.8-6.6 5-1.2 1.3-5 6-4.2 6.7.4.3 3.1-2.2 5.8-4.8 2.8-2.5 6.3-6 5-7ZM319 24.5c-.3-1.5-.9-2-6-1-1.4.3-5.7 1.1-5.5 2.2.1.5 2.9.5 5.6.5 2.7 0 6.2-.1 6-1.7Z" fill="#0F0F0F"></path>
    <path d="M48.2 74.6a17 17 0 0 0-16.3 5.3c-6.9 7.7-3.3 16.6 4 19.6 2.7 1 3.7-2 .8-3.3-2.9-1.4-9.7-6.5-16.9 2.4-5.7 7-1.3 15 1.6 18" stroke-width="2" stroke-linecap="round" stroke="#0F0F0F"></path>
    <path d="M288.1 10.5a1 1 0 0 1 1.8 0l2.5 4.2c.2.4.6.6 1 .5l4.8-.7a1 1 0 0 1 1.1 1.4l-1.8 4.6c-.1.4 0 .8.3 1l3.6 3.4a1 1 0 0 1-.4 1.7l-4.7 1.5a1 1 0 0 0-.7.9l-.4 4.9a1 1 0 0 1-1.5.8l-4.1-2.8a1 1 0 0 0-1.2 0l-4 2.8a1 1 0 0 1-1.6-.8l-.4-5a1 1 0 0 0-.7-.8l-4.7-1.5a1 1 0 0 1-.4-1.7l3.6-3.3c.3-.3.4-.7.3-1.1l-1.8-4.6a1 1 0 0 1 1-1.4l5 .7a1 1 0 0 0 1-.5l2.4-4.2Z" fill="#000"></path>
    <path d="m284 11 2.5 4.3a2 2 0 0 0 2 1l4.9-.8-1.8 4.6a2 2 0 0 0 .5 2.2l3.6 3.4-4.7 1.5a2 2 0 0 0-1.4 1.7l-.4 5-4-2.8a2 2 0 0 0-2.3 0l-4.1 2.7-.4-4.9a2 2 0 0 0-1.4-1.7l-4.7-1.5 3.6-3.4a2 2 0 0 0 .5-2.2l-1.8-4.6 4.9.7a2 2 0 0 0 2-1L284 11Z" stroke-width="2" stroke="#000" fill="#F8A60F"></path>
  </g>
  <defs>
    <clipPath id="a">
      <path d="M0 0h350v126H0z" fill="#fff"></path>
    </clipPath>
  </defs>
</svg>
