<svg viewBox="0 0 350 126" fill="none" xmlns="http://www.w3.org/2000/svg">
  <g clip-path="url(#a)">
    <path d="m0 29 7.5 44 55 53.1 236-24.1L317.8 0 0 29Z" fill="#FF4D4D"></path>
    <path d="m183.8 1.7 134-1.6-74.7 25.3L303 84 54 118 26 91l37.7-46.1L4 53 0 29 183.8 1.7Z" fill="#ED3737"></path>
    <path d="M28.4 33.4c.8-5.5 5.2-15.6 17.2-12M28 23.2c.3-2.1 3.4-8 8-6.6M345.7 80.8c-.4 3.5-3.2 9.7-10.7 7.4M346 87.2c-.2 1.3-2.1 5-5 4.1" stroke-width="2" stroke-linecap="round" stroke="#0F0F0F"></path>
    <rect transform="matrix(1 -.07 .07 1 45 34.4)" rx="8" fill="#0F0F0F" height="66.8" width="289.2"></rect>
    <rect transform="matrix(1 -.07 .07 1 45 34.4)" rx="8" stroke="#0F0F0F" height="66.8" width="289.2"></rect>
    <rect transform="matrix(1 -.07 .07 1 43 28.7)" rx="7" stroke-width="2" stroke="#0F0F0F" fill="#fff" y=".9" x="1.1" height="64.8" width="285.2"></rect>
    <rect transform="rotate(-4 56.6 65.3)" rx="2.5" fill="#E6E6EB" y="65.3" x="56.6" height="5" width="261.2"></rect>
    <rect transform="rotate(-4 56.6 65.3)" rx="2.5" fill="#ED3737" y="65.3" x="56.6" height="5" width="58.6"></rect>
    <circle transform="rotate(-4 140 61.8)" fill="#E6E6EB" r="7" cy="61.8" cx="140"></circle>
    <circle transform="rotate(-4 226.2 56.1)" fill="#E6E6EB" r="7" cy="56.1" cx="226.2"></circle>
    <circle transform="rotate(-4 312.4 50.4)" fill="#E6E6EB" r="7" cy="50.4" cx="312.4"></circle>
    <path d="m137.9 60 4-.3v1l-4 .3zM138 62l4-.3.1 2-4 .3z" fill="#0F0F0F"></path>
    <circle transform="rotate(-4 139.8 59.8)" fill="#0F0F0F" r="1" cy="59.8" cx="139.8"></circle>
    <path d="m224.1 54.3 4-.3v1l-4 .3zM224.2 56.3l4-.3.1 2-4 .3z" fill="#0F0F0F"></path>
    <circle transform="rotate(-4 226 54.1)" fill="#0F0F0F" r="1" cy="54.1" cx="226"></circle>
    <path d="m310.3 48.5 4-.3v1l-4 .3zM310.4 50.5l4-.3.1 2-4 .3z" fill="#0F0F0F"></path>
    <circle transform="rotate(-4 312.3 48.4)" fill="#0F0F0F" r="1" cy="48.4" cx="312.3"></circle>
    <path d="M17.6 81a17 17 0 0 0 1.5 17c6 8.5 15.5 7 20 .5 1.6-2.3-1-4-3-1.5s-8.5 8-1.5 17c5.6 7.2 14.3 4.7 18 2.5" stroke-width="2" stroke-linecap="round" stroke="#0F0F0F"></path>
    <path d="M91.7 46.9h-.9l2-6.7h.8l2.8 6.3-.8.1-2.3-5.4-1.6 5.7Zm0-2.6 3.4-.2v.7l-3.3.2v-.7Zm7.5 2.2a2 2 0 0 1-1.9-1.1c-.2-.4-.3-.8-.3-1.3l.1-1.4.7-1a2 2 0 0 1 1-.3l.9.1.4.3.3.3-.1-2.4h.7l.4 6.5h-.7v-.7h-.1l-.2.4-.4.4-.8.2Zm0-.7c.4 0 .6-.1.8-.3.2-.2.4-.4.4-.7.1-.3.2-.6.1-1 0-.4 0-.7-.2-1l-.5-.6c-.2-.1-.5-.2-.8-.1-.3 0-.6 0-.8.3-.2.1-.3.4-.4.7v.9l.1 1 .6.6.8.2Zm5.6.3a2 2 0 0 1-2-1l-.3-1.4c0-.5 0-1 .2-1.4.2-.4.4-.7.7-.9a2 2 0 0 1 1-.4l.8.1.5.4.2.3h.1l-.2-2.4h.8l.4 6.4h-.7v-.7h-.1l-.3.4-.4.4-.7.2Zm0-.7c.3 0 .6-.1.8-.3l.4-.7.1-1c0-.3 0-.6-.2-1l-.5-.5c-.2-.2-.5-.2-.8-.2-.3 0-.6.1-.8.3l-.4.7-.1 1c0 .3 0 .6.2.9l.5.6c.3.2.5.2.8.2Zm7.9.6-.1-.9h-1l-1-.2v-1.2a5.7 5.7 0 0 0 2 .4l-.2-1.4-1.1-.4-.6-.6c-.2-.2-.3-.4-.3-.7 0-.3 0-.6.2-.8l.6-.6a3 3 0 0 1 1-.3v-.6h.6v.6a5 5 0 0 1 1.9.3l-.4 1a4.5 4.5 0 0 0-1.4-.2v1.2l1 .4.8.5c.2.2.3.4.3.8s-.1.8-.4 1.1c-.3.3-.8.6-1.4.7v.9h-.5Zm.4-2 .5-.2v-.6l-.2-.1-.4-.2.1 1.1Zm-.8-2.6v-1a1 1 0 0 0-.3.1l-.2.2v.4l.2.2.3.1Zm8 3.6-4.5.3v-1l1.5-1.7a24.4 24.4 0 0 0 1.1-1.5v-.6c0-.3 0-.5-.2-.6a.8.8 0 0 0-.5-.2c-.3 0-.5.1-.8.3-.2 0-.4.3-.7.5l-.7-.8.5-.5.7-.4 1-.2c.4 0 .8 0 1 .2.4 0 .6.3.8.5l.3.9-.1 1-.6.9-.9 1-.7.8v.1l2.7-.2.1 1.2Zm5.2-1.7h-.8l.1 1.4h-1.3v-1.3l-2.8.2v-1l2.5-4.3h1.2l.3 4h.8v1Zm-2.1-1-.1-1V39.9a6.8 6.8 0 0 1-.4.7l-1 1.9 1.5-.1Zm5.6 2-.3-4.8h.7v.7l.5-.6c.3-.2.5-.3.9-.3l.8.1.5.6.6-.6c.2-.2.5-.3.9-.3s.8 0 1 .3c.4.3.6.7.6 1.3l.2 3.3h-.7l-.3-3.3c0-.3-.1-.6-.3-.7-.2-.2-.5-.2-.7-.2a1 1 0 0 0-.8.4c-.2.2-.3.4-.2.8l.2 3.1-.8.1-.2-3.4c0-.2-.1-.5-.3-.6a1 1 0 0 0-.7-.2 1 1 0 0 0-.6.2l-.4.4v.7l.1 3h-.7Zm9.8-.5c-.5 0-.9 0-1.2-.2-.4-.2-.6-.5-.8-.8a3 3 0 0 1-.4-1.3c0-.6 0-1 .2-1.4.1-.4.4-.7.7-1 .3-.2.7-.3 1.1-.3.5 0 .9 0 1.2.2.4.2.7.5.9.8.2.4.3.9.3 1.4 0 .5 0 1-.2 1.3-.1.4-.4.7-.7 1-.3.2-.7.3-1.1.3Zm0-.6c.3 0 .5-.2.7-.4.3-.1.4-.4.5-.7v-.9l-.1-.9c-.2-.3-.3-.5-.6-.6-.2-.2-.5-.3-.8-.3-.3 0-.6.2-.8.4l-.5.7v1c0 .2 0 .5.2.8 0 .3.3.5.5.7l.8.2Zm3.3.3-.3-4.9h.7v.7h.1l.5-.6c.2-.2.5-.3.8-.3a7.9 7.9 0 0 1 .4 0v.8a2.3 2.3 0 0 0-.5 0l-.6.1-.4.5-.1.6.2 3-.8.1Zm5.3-.2c-.5 0-.9 0-1.2-.3-.4-.2-.7-.4-.9-.8a3 3 0 0 1-.4-1.3c0-.5 0-1 .2-1.3.2-.4.4-.8.7-1a2 2 0 0 1 1.2-.4h.7a1.9 1.9 0 0 1 1.3 1.2l.2 1.1v.3l-3.7.3v-.7l3-.2c0-.2-.1-.5-.3-.7a1.3 1.3 0 0 0-1.2-.6c-.3 0-.5.1-.7.3-.2.1-.4.3-.5.6l-.1.7v.5l.3.9.5.5c.3.2.5.2.8.2l.6-.1.4-.3.2-.5.8.2-.4.7-.6.5-1 .2Zm7.5-5.6v.7l-2.5.2v-.7l2.5-.2Zm-1.9-1h.8l.3 4.6.1.5.3.2h.3a1.3 1.3 0 0 0 .3 0l.2.6a1.6 1.6 0 0 1-.6.1h-.6l-.5-.4c-.2-.2-.2-.4-.3-.7l-.3-5Zm5.3 5.8c-.5 0-.8 0-1.2-.2l-.8-.8a3 3 0 0 1-.4-1.3c0-.5 0-1 .2-1.4l.7-1c.3-.2.7-.3 1.2-.3.4 0 .8 0 1.1.2.4.2.7.5.9.9.2.3.3.8.3 1.3l-.1 1.3c-.2.4-.4.7-.8 1-.3.2-.7.3-1.1.3Zm0-.6c.3 0 .6-.2.8-.3l.4-.8V40l-.1-.9c-.1-.3-.3-.5-.6-.6-.2-.2-.5-.3-.8-.2-.3 0-.6 0-.8.3-.2.2-.4.4-.4.7-.1.3-.2.6-.1 1 0 .2 0 .5.2.8l.5.7.8.2Zm8 2-1-.1a2 2 0 0 1-1-.8l.5-.4.3.2.4.3.7.1c.4 0 .8-.1 1-.4.2-.2.4-.5.3-.9v-1h-.1l-.2.4-.4.4-.8.2a2 2 0 0 1-1-.3 2 2 0 0 1-.9-.7c-.2-.4-.3-.8-.3-1.3s0-1 .2-1.3c.1-.4.3-.7.6-1a2 2 0 0 1 1.1-.3h.8l.4.4.3.3V37h.7l.4 5c0 .4 0 .8-.2 1-.2.3-.4.6-.8.7l-1 .3Zm-.2-2.7c.3 0 .5-.1.7-.3.2-.1.4-.3.5-.6v-1c0-.3 0-.6-.2-.9 0-.2-.2-.4-.5-.6l-.8-.2c-.3 0-.5.2-.7.3l-.5.7v1c0 .3 0 .6.2.8 0 .3.3.5.5.6l.8.2Zm5.6.5c-.5 0-.9 0-1.2-.3-.4-.2-.7-.4-.9-.8a3 3 0 0 1-.3-1.3l.1-1.4c.2-.3.4-.7.8-.9a2 2 0 0 1 1.1-.4h.8l.7.4.5.8.3 1.1v.3l-3.8.3v-.7l3-.2-.2-.7a1.2 1.2 0 0 0-1.3-.6c-.3 0-.5 0-.7.2l-.5.7-.1.7v.5l.3.9c.1.2.3.4.6.5.2.2.5.2.8.2l.5-.1.4-.3.2-.5.8.2-.4.7c-.1.2-.3.3-.6.4l-.9.3Zm5-5.4v.6l-2.5.2v-.6l2.5-.2Zm-1.9-1 .8-.1.3 4.7v.4l.3.2h.4a1.3 1.3 0 0 0 .3 0l.2.7a1.6 1.6 0 0 1-.6.1l-.6-.1c-.2 0-.4-.2-.5-.4-.2-.2-.3-.4-.3-.7l-.3-4.8Zm6 5.7-.5-6.6 4-.2v.7l-3.1.2.1 2.2 2.9-.2v.7l-2.8.2.2 2.9h-.8Zm5-.4-.2-4.9h.7v.7l.5-.6c.3-.2.5-.3.8-.3a7.9 7.9 0 0 1 .4 0v.8a2.3 2.3 0 0 0-.4 0l-.6.1c-.2.1-.4.3-.4.5l-.2.6.2 3-.7.1Zm5.3-.2c-.4 0-.8 0-1.2-.3-.4-.2-.6-.4-.9-.8a3 3 0 0 1-.3-1.3c0-.5 0-1 .2-1.3.1-.4.4-.8.7-1a2 2 0 0 1 1.1-.4h.8a1.9 1.9 0 0 1 1.2 1.2c.2.3.3.7.3 1.1v.3l-3.8.3v-.7l3-.2c0-.2 0-.5-.2-.7a1.3 1.3 0 0 0-1.2-.6c-.3 0-.6.1-.8.3-.2.1-.4.3-.5.6V38c0 .3 0 .7.2.9.1.2.3.4.6.5.2.2.5.2.8.2l.5-.1c.2 0 .3-.2.4-.3l.3-.5.7.2c0 .3-.2.5-.3.7l-.7.5-.9.2Zm5.3-.4c-.5 0-1 0-1.3-.2l-.8-.8a3 3 0 0 1-.4-1.3c0-.5 0-1 .2-1.4l.7-1a2 2 0 0 1 1.2-.3h.7a1.9 1.9 0 0 1 1.3 1.1l.2 1.2v.3l-3.7.2v-.6l3-.2c0-.3-.2-.5-.3-.7a1.2 1.2 0 0 0-1.2-.7c-.3 0-.6.2-.8.3l-.4.6-.2.8v.4l.3 1 .6.5c.2.1.5.2.8.1h.5l.4-.4c.2 0 .2-.2.3-.4l.7.2-.3.6-.7.5-.8.2Zm7.8 1.4-1-.1a2 2 0 0 1-1.1-.8l.6-.5.2.3.5.3h.7c.4 0 .7 0 1-.3.2-.2.3-.5.3-.9v-1h-.1l-.2.4-.5.3c-.1.2-.4.2-.7.2a2 2 0 0 1-1-.2 2 2 0 0 1-.9-.7c-.2-.4-.3-.8-.3-1.3l.1-1.3.7-1a2 2 0 0 1 1-.3h.9l.4.4.3.3v-.8h.7l.4 5c0 .4 0 .8-.3 1-.1.3-.4.5-.7.7l-1 .3Zm-.2-2.7c.3 0 .5-.1.7-.3.2-.1.4-.4.4-.6.1-.3.2-.6.1-1 0-.3 0-.6-.2-.9-.1-.3-.3-.5-.5-.6l-.8-.2a1.3 1.3 0 0 0-1.2 1v1l.1.8c.2.3.3.5.6.6l.8.2Zm3.5.5-.3-5h.8l.3 5h-.8Zm0-5.8h-.4a.5.5 0 0 1-.1-.4v-.4l.5-.2.4.1.1.4-.1.4-.4.1Zm4 .6v.6l-2.6.2v-.6l2.6-.2Zm-1.5 5-.4-5.6c0-.2 0-.5.2-.7 0-.2.3-.3.5-.4l.6-.2a1.9 1.9 0 0 1 .7 0l-.1.7h-.5c-.2 0-.4 0-.5.2l-.1.6.3 5.4h-.7Zm4.7-5.2v.6l-2.5.2V34l2.5-.2Zm-1.9-1 .8-.1.3 4.7.1.4.3.2h.3a1.3 1.3 0 0 0 .3 0l.2.7a1.6 1.6 0 0 1-.5 0h-.7c-.2 0-.4-.2-.5-.4-.2-.2-.2-.4-.3-.7l-.3-4.9Zm7 5.6-1.8-4.8h.8l1.3 3.6.8-3.8h.8L223 37l.9-3.8h.8l-1.2 5h-.7l-1.4-3.7-.9 3.8h-.7Zm6.2-.4-.3-5h.7l.3 5h-.7Zm0-5.8-.4-.1a.5.5 0 0 1-.2-.4l.1-.3.4-.2.4.1.2.4c0 .1 0 .2-.2.3 0 .2-.2.2-.3.2Zm4 .6v.6l-2.6.2v-.7l2.5-.1Zm-2-1 .8-.1.3 4.6.1.5.3.2h.3a1.3 1.3 0 0 0 .3 0l.2.6a1.6 1.6 0 0 1-.5.2l-.7-.1-.5-.4-.2-.7-.4-4.9Zm4 2.8.2 3h-.7L231 31h.8l.2 2.3c.1-.3.3-.5.5-.6.2-.2.5-.3 1-.3l.8.1c.3.1.5.3.6.6.2.3.3.6.3 1l.2 3.1h-.7l-.2-3c0-.4-.2-.7-.4-.9a1 1 0 0 0-.9-.2c-.2 0-.4 0-.6.2-.2 0-.3.3-.4.5l-.2.7Zm9.1-2.6v.7l-2.5.1v-.6l2.5-.2Zm-1.9-1h.8l.3 4.6.1.5.3.2h.3a1.3 1.3 0 0 0 .3 0l.2.6a1.6 1.6 0 0 1-.5.1h-.7l-.5-.5-.2-.6-.4-5Zm4 2.9.2 2.9h-.7l-.5-6.5h.8l.2 2.4.5-.7 1-.3c.2 0 .5 0 .8.2.3.1.5.3.6.6.2.2.3.6.3 1l.2 3-.7.1-.2-3c0-.4-.2-.7-.4-.9a1 1 0 0 0-.9-.3l-.6.2-.4.5-.2.8Zm4.8 2.6-.3-4.9h.7l.3 4.9h-.7Zm0-5.7c-.2 0-.3 0-.4-.2a.5.5 0 0 1-.2-.3c0-.2 0-.3.2-.4l.3-.2c.2 0 .3 0 .4.2l.2.3-.1.4-.4.2Zm5.3 1.5-.6.3-.2-.4a1 1 0 0 0-.4-.2h-.5c-.3 0-.6 0-.8.2-.2.1-.2.3-.2.5s0 .4.2.5l.7.2.7.1c.4.1.8.2 1 .4.2.2.4.5.4.9 0 .2 0 .5-.2.7l-.6.6-1 .3c-.5 0-1 0-1.3-.3-.3-.2-.6-.5-.7-.9l.7-.2.4.5c.2.2.5.2.8.2.4 0 .6-.1.8-.3.2-.2.3-.3.3-.6 0-.1 0-.3-.2-.4l-.6-.2-.8-.1a2 2 0 0 1-1-.5c-.2-.2-.4-.4-.4-.8 0-.3 0-.5.2-.7.1-.3.3-.4.6-.6l1-.2c.4 0 .8 0 1 .2.4.2.6.5.7.8Zm6 3.6-1.2-.3-.8-.8a3 3 0 0 1-.4-1.3c0-.5 0-1 .2-1.4.2-.4.4-.7.8-1 .3-.2.7-.3 1-.3.5 0 1 0 1.3.2.3.2.6.5.8.9.2.3.3.8.4 1.3 0 .5 0 1-.2 1.3l-.7 1-1.2.4Zm0-.7c.3 0 .6-.2.8-.3l.4-.7.1-1c0-.3 0-.6-.2-.9-.1-.3-.3-.5-.5-.6-.2-.2-.5-.3-.9-.2-.3 0-.6 0-.8.3l-.4.7a2.7 2.7 0 0 0 .1 1.8l.5.7.9.2Zm3.4.3-.3-4.9h.7v.7l.5-.6c.3-.2.5-.3.8-.3a8.1 8.1 0 0 1 .4 0v.8a2.2 2.2 0 0 0-.4 0l-.6.1-.4.5-.2.6.2 3-.7.1Zm5-.2a2 2 0 0 1-1.9-1c-.2-.4-.3-.9-.3-1.4 0-.5 0-1 .2-1.4.1-.4.3-.7.6-.9a2 2 0 0 1 1.1-.4l.8.1.4.4.3.3-.1-2.4h.7l.5 6.4h-.8v-.7l-.3.4-.4.4-.8.2Zm.1-.7c.3 0 .5-.1.7-.3.2-.1.4-.4.5-.7v-1l-.1-1c-.2-.2-.3-.4-.6-.5-.2-.2-.4-.2-.8-.2-.3 0-.5.1-.7.3l-.5.7v1c0 .3 0 .6.2.9 0 .2.3.5.5.6.2.2.5.2.8.2Zm5.7.3c-.5 0-.9 0-1.2-.2a2 2 0 0 1-.9-.8 3 3 0 0 1-.3-1.3c0-.6 0-1 .2-1.4.1-.4.4-.7.7-1a2 2 0 0 1 1.1-.3h.8A1.9 1.9 0 0 1 275 31c.2.3.2.7.3 1.2v.3l-3.8.2v-.6l3-.2-.2-.7a1.2 1.2 0 0 0-1.2-.7c-.3 0-.6.1-.8.3l-.5.6-.1.8v.4c0 .4.1.7.3 1 .1.2.3.4.6.5.2.1.5.2.8.1h.5l.4-.4.3-.4.7.1c0 .3-.2.5-.4.7-.1.2-.3.4-.6.5l-.9.2Zm3.2-.3-.3-4.9h.7v.7l.5-.6c.3-.2.5-.3.8-.3a7.9 7.9 0 0 1 .4 0v.7a2.2 2.2 0 0 0-.4 0l-.6.2-.4.4-.2.7.2 3-.7.1ZM115 80l-.3-5.1 3-.2.1.5-2.4.2.1 1.7 2.2-.1v.5l-2.2.2.2 2.2h-.6Zm4-.3-.2-3.8h.6v.5l.4-.5.6-.2a6.8 6.8 0 0 1 .3 0v.6a1.9 1.9 0 0 0-.3 0 1 1 0 0 0-.5.1l-.3.4-.1.5.1 2.4h-.5Zm4.1-.2c-.3 0-.6 0-1-.2l-.6-.6-.3-1c0-.4 0-.8.2-1 .1-.4.3-.6.5-.8.3-.2.6-.3 1-.3h.5a1.5 1.5 0 0 1 1 .9l.2.9v.2l-3 .2v-.5l2.4-.1-.2-.6a1 1 0 0 0-1-.5 1 1 0 0 0-.5.2l-.4.5V77.7l.1.7.5.5h1l.3-.2.2-.4.6.1-.3.6c-.1.1-.3.3-.5.3a2 2 0 0 1-.7.2Zm4.1-.3-1-.1c-.2-.2-.5-.4-.6-.7-.2-.3-.3-.6-.3-1l.1-1 .6-.8c.2-.2.5-.3.9-.3h.6l.5.4c.2 0 .3.3.4.5l.3.9v.3l-3 .1V77l2.3-.1-.1-.6a1 1 0 0 0-1-.5 1 1 0 0 0-.6.2c-.1.2-.3.3-.3.5l-.1.6v.4c0 .2 0 .5.2.7l.4.4.7.1h.4l.3-.3.2-.3h.6c0 .3-.2.4-.3.6l-.5.4a2 2 0 0 1-.7.1Zm7.8-4-.3-.5a1.4 1.4 0 0 0-1.3-.5 1.5 1.5 0 0 0-1.3 1l-.2 1.1c0 .4.2.8.3 1.1.2.3.4.5.7.6.2.2.5.2.8.2.3 0 .6 0 .8-.2.2-.2.4-.3.5-.6l.1-.8h.2l-1.5.1v-.5l1.9-.2v.6c0 .4 0 .8-.2 1.1-.1.3-.4.6-.7.8-.3.2-.6.3-1 .3-.5 0-.9 0-1.2-.2-.4-.2-.7-.5-.9-.9l-.4-1.4.1-1 .4-1 .7-.5.9-.2a2.3 2.3 0 0 1 1.4.4 2 2 0 0 1 .8 1.1h-.6Zm2 3.3-.2-3.8h.6l.3 3.8h-.6Zm0-4.5h-.2l-.2-.3.1-.3.3-.1h.3l.2.3-.1.3-.3.1Zm3.2.5v.5l-2 .1v-.5l2-.1Zm-1.2 3.9-.3-4.4.1-.5.4-.4.5-.1a1.5 1.5 0 0 1 .6 0l-.2.6H139.8l-.4.1-.1.4.3 4.2h-.6Zm3.6-4v.4l-1.9.1v-.5h2Zm-1.4-1h.6l.2 3.7.1.4.2.1h.5l.2.5a1.2 1.2 0 0 1-.5.1h-.5a1 1 0 0 1-.4-.4 1 1 0 0 1-.2-.5l-.2-3.8ZM202 73l-.3-5.1 3-.2.1.5-2.4.2.1 1.7 2.2-.1v.5l-2.2.2.2 2.2h-.6Zm4-.3-.2-3.8h.6v.5l.4-.5.6-.2a6.8 6.8 0 0 1 .3 0v.6a1.9 1.9 0 0 0-.3 0 1 1 0 0 0-.5.1l-.3.4-.1.5.1 2.4h-.5Zm4.1-.2c-.3 0-.6 0-1-.2l-.6-.6-.3-1c0-.4 0-.8.2-1 .1-.4.3-.6.5-.8.3-.2.6-.3 1-.3h.5a1.5 1.5 0 0 1 1 .9l.2.9v.2l-3 .2v-.5l2.4-.1-.2-.6a1 1 0 0 0-1-.5 1 1 0 0 0-.5.2l-.4.5V70.7l.1.7.5.5h1l.3-.2.2-.4.6.1-.3.6c-.1.1-.3.3-.5.3a2 2 0 0 1-.7.2Zm4.1-.3-1-.1c-.2-.2-.5-.4-.6-.7-.2-.3-.3-.6-.3-1l.1-1 .6-.8c.2-.2.5-.3.9-.3h.6l.5.4c.2 0 .3.3.4.5l.3.9v.3l-3 .1V70l2.3-.1-.1-.6a1 1 0 0 0-1-.5 1 1 0 0 0-.6.2c-.1.2-.3.3-.3.5l-.1.6v.4c0 .2 0 .5.2.7l.4.4.7.1h.4l.3-.3.2-.3h.6c0 .3-.2.4-.3.6l-.5.4a2 2 0 0 1-.7.1Zm7.8-4-.3-.5a1.4 1.4 0 0 0-1.3-.5 1.5 1.5 0 0 0-1.3 1l-.2 1.1c0 .4.2.8.3 1.1.2.3.4.5.7.6.2.2.5.2.8.2.3 0 .6 0 .8-.2.2-.2.4-.3.5-.6l.1-.8h.2l-1.5.1v-.5l1.9-.2v.6c0 .4 0 .8-.2 1.1-.1.3-.4.6-.7.8-.3.2-.6.3-1 .3-.5 0-.9 0-1.2-.2-.4-.2-.7-.5-.9-.9l-.4-1.4.1-1 .4-1 .7-.5.9-.2a2.3 2.3 0 0 1 1.4.4 2 2 0 0 1 .8 1.1h-.6Zm2 3.3-.2-3.8h.6l.3 3.8h-.6Zm0-4.5h-.2l-.2-.3.1-.3.3-.1h.3l.2.3-.1.3-.3.1Zm3.2.5v.5l-2 .1v-.5l2-.1Zm-1.2 3.9-.3-4.4.1-.5.4-.4.5-.1a1.5 1.5 0 0 1 .6 0l-.2.6H226.8l-.4.1-.1.4.3 4.2h-.6Zm3.6-4v.4l-1.9.1v-.5h2Zm-1.4-1h.6l.2 3.7.1.4.2.1h.5l.2.5a1.2 1.2 0 0 1-.5.1h-.5a1 1 0 0 1-.4-.4 1 1 0 0 1-.2-.5l-.2-3.8ZM280.4 68l-.3-5 3-.2v.5l-2.4.2.1 1.7 2.2-.1v.5l-2.1.2.1 2.2h-.6Zm4-.2L284 64h.6v.5l.4-.5.6-.2a6.1 6.1 0 0 1 .3 0v.6a1.7 1.7 0 0 0-.3 0 1 1 0 0 0-.5.1l-.3.4-.1.5.2 2.4h-.6Zm4-.2c-.3 0-.6 0-.9-.2-.3-.1-.5-.3-.7-.6l-.2-1 .1-1c.1-.4.3-.6.6-.8.2-.2.5-.3.8-.3h.6a1.5 1.5 0 0 1 1 .9l.2.9v.2l-3 .2v-.5l2.4-.1c0-.3 0-.4-.2-.6a1 1 0 0 0-1-.5 1 1 0 0 0-.5.2l-.4.5V65.8l.1.8.5.4h1l.4-.2.1-.4.6.2-.2.5-.5.4a2 2 0 0 1-.7.1Zm4.1-.3-1-.1-.6-.7c-.2-.3-.3-.6-.3-1s0-.7.2-1c0-.3.3-.6.5-.8.3-.2.6-.3 1-.3h.5a1.5 1.5 0 0 1 1 1l.2.8v.3l-3 .2V65l2.4-.1-.2-.6a1 1 0 0 0-1-.5 1 1 0 0 0-.6.3l-.3.4-.1.6v.4l.2.7.5.4.6.1h.4l.3-.3.2-.3h.6c0 .3-.2.5-.3.6l-.5.4a2 2 0 0 1-.7.1Zm7-4.3c0-.3-.1-.5-.3-.6-.3-.1-.5-.2-.8-.1l-.6.1a1 1 0 0 0-.4.3.7.7 0 0 0 0 .8l.3.2.3.2h.3l.6.2h.4l.5.3c.2 0 .3.2.4.4l.2.6c0 .2 0 .5-.2.7-.1.3-.3.4-.6.6l-1 .3c-.3 0-.6 0-1-.2-.2 0-.4-.2-.6-.4l-.3-.7h.7c0 .1 0 .3.2.4l.4.2.6.1c.2 0 .5 0 .6-.2.2 0 .4-.2.5-.3V65a1 1 0 0 0-.5-.2l-.5-.2-.6-.1-1-.4a1 1 0 0 1-.4-.9c0-.2 0-.5.2-.7l.6-.6.9-.2.8.1.7.5.3.6h-.6Zm2.3 1.3.2 2.3h-.6l-.3-5h.6v1.8h.1l.4-.5.7-.2.7.1.5.5.2.8.2 2.4h-.6l-.2-2.4a1 1 0 0 0-.3-.7.8.8 0 0 0-.6-.2 1 1 0 0 0-.5.2c-.2 0-.3.2-.4.4v.5Zm3.7 2.1-.2-3.8h.6l.2 3.8h-.6Zm0-4.5h-.3l-.1-.3.1-.3.3-.2.3.1.1.3v.3l-.4.1Zm1.8 5.8-.4-5.2h.6v.6h.1l.2-.3.3-.3.6-.2a1.5 1.5 0 0 1 1.5.8l.2 1-.1 1.1-.5.8-.9.3-.5-.1a1 1 0 0 1-.4-.3l-.2-.2v2h-.5Zm.3-3.3.2.7.4.5c.2.1.4.2.6.1.3 0 .5 0 .6-.2l.4-.5v-.8l-.1-.7-.4-.5a1 1 0 0 0-.7-.1 1 1 0 0 0-.9.7v.8Zm4 3-.4-5.2h.6v.6l.2-.3a1 1 0 0 1 1-.5 1.5 1.5 0 0 1 1.4.9c.2.3.3.6.3 1l-.1 1c-.2.4-.3.6-.6.8-.2.2-.5.3-.8.3l-.6-.1-.4-.3a4 4 0 0 1-.2-.2l.1 2h-.6Zm.3-3.3c0 .3 0 .5.2.7 0 .2.2.4.4.5l.6.2.6-.3c.1-.1.3-.3.3-.5l.1-.8c0-.2 0-.5-.2-.7 0-.2-.2-.4-.4-.5a1 1 0 0 0-.6-.1 1 1 0 0 0-.6.2 1 1 0 0 0-.3.5l-.1.8Zm3.8 1.6-.2-3.8h.5l.3 3.8h-.6Zm0-4.4-.3-.1-.1-.3v-.3l.4-.1h.3l.1.3-.1.3-.3.2Zm2.1 2 .1 2.3h-.5l-.3-3.8h.6v.6l.4-.5c.2-.2.4-.2.7-.3.3 0 .5 0 .7.2.2 0 .4.2.5.4l.2.8.2 2.4h-.6l-.2-2.3a1 1 0 0 0-.2-.7.8.8 0 0 0-.7-.2 1 1 0 0 0-.5.1l-.3.4-.1.6Zm5.3 3.5-.7-.1a1.6 1.6 0 0 1-1-.6l.5-.4.2.3.4.2h.6c.3 0 .5 0 .7-.2.2-.2.3-.4.3-.8l-.1-.7-.2.2c0 .2-.2.3-.3.3l-.6.2c-.3 0-.6 0-.9-.2l-.6-.6-.3-1c0-.4 0-.7.2-1l.5-.7c.2-.2.5-.3.8-.3h.6l.4.3.2.3v-.6h.6l.2 3.8-.1.9-.6.5-.8.2Zm-.2-2.1.6-.2.4-.5v-.8l-.1-.7a1 1 0 0 0-.4-.4 1 1 0 0 0-.7-.2 1 1 0 0 0-.6.2l-.3.6v.7l.1.7.4.4.6.2Z" fill="#000"></path>
  </g>
  <defs>
    <clipPath id="a">
      <path d="M0 0h350v126H0z" fill="#fff"></path>
    </clipPath>
  </defs>
</svg>
