<svg viewBox="0 0 250 250" fill="none" xmlns="http://www.w3.org/2000/svg">
  <g clip-path="url(#a)">
    <path d="M226.88 112.1a70.64 70.64 0 1 1-141.29 0 70.64 70.64 0 0 1 141.29 0z" fill="#0F0F0F"></path>
    <path d="M219.09 107.64a70.64 70.64 0 1 1-141.29 0 70.64 70.64 0 0 1 141.29 0z" fill="#FF4D4D"></path>
    <path clip-rule="evenodd" d="M148.45 167.42a59.77 59.77 0 1 0 0-119.55 59.77 59.77 0 0 0 0 119.55zm0 10.87a70.64 70.64 0 1 0 0-141.29 70.64 70.64 0 0 0 0 141.29z" fill-rule="evenodd" fill="#0F0F0F"></path>
    <path d="M192.39 107.09a44.5 44.5 0 1 1-89 0 44.5 44.5 0 0 1 89 0z" fill="#fff"></path>
    <path d="M169.03 106.53a21.7 21.7 0 1 1-43.4 0 21.7 21.7 0 0 1 43.4 0z" fill="#FF4D4D"></path>
    <path d="m118.46 176.01 22.05-39.33a6.52 6.52 0 0 0-4.53-9.6L38.12 109.4l-.55-13.79a7.75 7.75 0 0 0-6.37-7.32L16.5 85.62a4.89 4.89 0 0 0-1.74 9.62l12.8 2.31a.71.71 0 0 1 .59.66l3.36 60.43a17.37 17.37 0 0 0 14.26 16.13l54.45 9.85a17.37 17.37 0 0 0 18.25-8.6z" fill="#fff"></path>
    <path clip-rule="evenodd" d="M16.49 85.62a4.89 4.89 0 0 0-1.74 9.62l12.8 2.31a.71.71 0 0 1 .59.66l3.36 60.43a17.37 17.37 0 0 0 14.26 16.13l54.45 9.85a17.37 17.37 0 0 0 18.25-8.6l22.05-39.34a6.52 6.52 0 0 0-4.53-9.6L38.12 109.4l-.47-11.7-.08-2.09a7.75 7.75 0 0 0-6.37-7.32L16.5 85.62zm26.1 37.82 1.92 34.48a4.34 4.34 0 0 0 3.56 4.03l54.46 9.84a4.34 4.34 0 0 0 4.56-2.15l17.58-31.36-82.08-14.84z" fill-rule="evenodd" fill="#0F0F0F"></path>
    <path d="M60.84 197.36a10.86 10.86 0 1 1-21.37-3.86 10.86 10.86 0 0 1 21.37 3.86zm38.47 6.95a10.86 10.86 0 1 1-21.37-3.86 10.86 10.86 0 0 1 21.37 3.87z" fill="#0F0F0F"></path>
  </g>
  <defs>
    <clipPath id="a">
      <path d="M0 0h250v250H0z" fill="#fff"></path>
    </clipPath>
  </defs>
</svg>
