<svg viewBox="0 0 250 250" fill="none" xmlns="http://www.w3.org/2000/svg">
  <g clip-path="url(#a)">
    <path d="m124.55 68.14 34.12 16.68-20.02 40.95-24.64-12.05a10.55 10.55 0 0 1-4.84-14.12l15.38-31.46zm75.07 36.7L165.5 88.16l-20.02 40.94 27.88 13.64a6.94 6.94 0 0 0 9.29-3.19l16.97-34.7zM173.84 71.1l37.49 18.33a7.03 7.03 0 0 1 3.23 9.4l-3.34 6.83-43.8-21.42 6.42-13.14zm-54.27-18.7a7.03 7.03 0 0 1 9.4-3.24l37.5 18.34-6.43 13.14-43.81-21.42 3.34-6.83z" fill="#5E8CFF"></path>
    <path clip-rule="evenodd" d="M170.41 50.13h.02c.02-.4.04-.87.02-1.43-.07-2.04-.51-4.51-1.34-7.03a25.07 25.07 0 0 0-3.08-6.4 11.3 11.3 0 0 0-1.5-1.77c-.38-.36-.6-.48-.62-.49-4.53-2.21-8.82-.18-10.25 2.73-1.42 2.9-.39 7.55 4.15 9.77 4.83 2.36 9.32 4.15 12.6 4.62zm2.42 11.98c-6.08.45-13.97-2.82-20.26-5.9-9.89-4.83-14.2-16.34-9.62-25.7 4.58-9.37 16.31-13.04 26.2-8.2 6.3 3.07 11.18 12.48 12.72 21.34 7.93-4.23 18.36-6.15 24.65-3.08 9.89 4.84 14.2 16.35 9.61 25.71-4.58 9.37-16.3 13.04-26.2 8.2-6.29-3.07-13.7-7.29-17.1-12.37zm10.95-5.44-.01-.02c.3-.26.66-.56 1.12-.89a26.06 26.06 0 0 1 6.37-3.26c2.5-.9 4.93-1.4 6.94-1.5.99-.05 1.76 0 2.31.1.53.08.76.18.77.18 4.53 2.22 5.57 6.86 4.14 9.77-1.42 2.9-5.72 4.94-10.25 2.73-4.83-2.37-9-4.82-11.39-7.12z" fill-rule="evenodd" fill="#5E8CFF"></path>
    <path d="M22 139.29a6.99 6.99 0 0 1 2.6-8.93l85.32-52.83a6.99 6.99 0 0 1 9.15 1.65l55.06 69.6c6.53 8.26 4.49 20.32-4.36 25.8L84.8 227.19c-8.85 5.48-20.55 1.93-25.03-7.6L22 139.3z" fill="#0F0F0F"></path>
    <path d="M32.14 160.38a6.97 6.97 0 0 1 2.63-8.89l89.73-55.56a6.97 6.97 0 0 1 9.14 1.63l40.56 51.33a17.46 17.46 0 0 1-4.43 25.68L84.8 227.2a17.46 17.46 0 0 1-25-7.54l-27.66-59.27z" fill="#fff"></path>
    <path clip-rule="evenodd" d="M133.64 97.56a6.97 6.97 0 0 0-9.14-1.63L34.77 151.5a6.97 6.97 0 0 0-2.63 8.89l27.67 59.27a17.46 17.46 0 0 0 24.99 7.54l84.97-52.62a17.46 17.46 0 0 0 4.43-25.68l-40.56-51.33zm-89.3 61.61 25.95 55.6a5.89 5.89 0 0 0 8.42 2.58l84.97-52.61a5.89 5.89 0 0 0 1.44-8.67l-38.03-48.13-82.74 51.23zm80.22-54.43zm-81.93 50.75z" fill-rule="evenodd" fill="#0F0F0F"></path>
    <path clip-rule="evenodd" d="M38.42 122.5c-9.32-15.05-5.04-34.86 9.95-44.14C63.36 69.08 83 74.07 92.32 89.13l11.96 19.32-9.83 6.1-11.97-19.33C76.4 85.38 63.8 82.41 54.46 88.2c-9.35 5.78-12.3 18.37-6.2 28.21l11.96 19.32-9.84 6.1-11.96-19.33zm26.12 42.18-1.88-3.03 9.84-6.09 1.87 3.03c5.46 8.82 17.57 11.65 27.2 5.69 9.63-5.96 12.49-18.06 7.03-26.88l-1.88-3.03 9.84-6.1 1.88 3.04c9.04 14.6 3.93 33.7-10.78 42.8-14.7 9.11-34.08 5.17-43.12-9.43z" fill-rule="evenodd" fill="#0F0F0F"></path>
  </g>
  <defs>
    <clipPath id="a">
      <path d="M0 0h250v250H0z" fill="#fff"></path>
    </clipPath>
  </defs>
</svg>
